<?xml version="1.0" encoding="UTF-8" standalone="no"?>
<!DOCTYPE svg PUBLIC "-//W3C//DTD SVG 1.1//EN"
 "http://www.w3.org/Graphics/SVG/1.1/DTD/svg11.dtd">
<!-- Generated by graphviz version 2.40.1 (20161225.0304)
 -->
<!-- Title: G Pages: 1 -->
<svg width="550pt" height="1464pt"
 viewBox="0.00 0.00 549.77 1464.00" xmlns="http://www.w3.org/2000/svg" xmlns:xlink="http://www.w3.org/1999/xlink">
<g id="graph0" class="graph" transform="scale(1 1) rotate(0) translate(4 1460)">
<title>G</title>
<polygon fill="#ffffff" stroke="transparent" points="-4,4 -4,-1460 545.7728,-1460 545.7728,4 -4,4"/>
<g id="clust1" class="cluster">
<title>cluster_Global</title>
<path fill="none" stroke="#c0c0c0" d="M105.8864,-152C105.8864,-152 521.7728,-152 521.7728,-152 527.7728,-152 533.7728,-158 533.7728,-164 533.7728,-164 533.7728,-1436 533.7728,-1436 533.7728,-1442 527.7728,-1448 521.7728,-1448 521.7728,-1448 105.8864,-1448 105.8864,-1448 99.8864,-1448 93.8864,-1442 93.8864,-1436 93.8864,-1436 93.8864,-164 93.8864,-164 93.8864,-158 99.8864,-152 105.8864,-152"/>
<text text-anchor="middle" x="313.8296" y="-1435.2" font-family="Times,serif" font-size="11.00" fill="#c0c0c0">Global</text>
</g>
<g id="clust2" class="cluster">
<title>cluster_\Ara</title>
<path fill="none" stroke="#c0c0c0" d="M113.8864,-160C113.8864,-160 513.7728,-160 513.7728,-160 519.7728,-160 525.7728,-166 525.7728,-172 525.7728,-172 525.7728,-1408 525.7728,-1408 525.7728,-1414 519.7728,-1420 513.7728,-1420 513.7728,-1420 113.8864,-1420 113.8864,-1420 107.8864,-1420 101.8864,-1414 101.8864,-1408 101.8864,-1408 101.8864,-172 101.8864,-172 101.8864,-166 107.8864,-160 113.8864,-160"/>
<text text-anchor="middle" x="313.8296" y="-1407.2" font-family="Times,serif" font-size="11.00" fill="#c0c0c0">Ara</text>
</g>
<g id="clust3" class="cluster">
<title>cluster_\Ara\Admin</title>
<path fill="none" stroke="#c0c0c0" d="M421.2728,-1320C421.2728,-1320 467.2728,-1320 467.2728,-1320 473.2728,-1320 479.2728,-1326 479.2728,-1332 479.2728,-1332 479.2728,-1380 479.2728,-1380 479.2728,-1386 473.2728,-1392 467.2728,-1392 467.2728,-1392 421.2728,-1392 421.2728,-1392 415.2728,-1392 409.2728,-1386 409.2728,-1380 409.2728,-1380 409.2728,-1332 409.2728,-1332 409.2728,-1326 415.2728,-1320 421.2728,-1320"/>
<text text-anchor="middle" x="444.2728" y="-1379.2" font-family="Times,serif" font-size="11.00" fill="#c0c0c0">Admin</text>
</g>
<g id="clust4" class="cluster">
<title>cluster_\Ara\App</title>
<path fill="none" stroke="#c0c0c0" d="M421.2728,-1240C421.2728,-1240 467.2728,-1240 467.2728,-1240 473.2728,-1240 479.2728,-1246 479.2728,-1252 479.2728,-1252 479.2728,-1300 479.2728,-1300 479.2728,-1306 473.2728,-1312 467.2728,-1312 467.2728,-1312 421.2728,-1312 421.2728,-1312 415.2728,-1312 409.2728,-1306 409.2728,-1300 409.2728,-1300 409.2728,-1252 409.2728,-1252 409.2728,-1246 415.2728,-1240 421.2728,-1240"/>
<text text-anchor="middle" x="444.2728" y="-1299.2" font-family="Times,serif" font-size="11.00" fill="#c0c0c0">App</text>
</g>
<g id="clust5" class="cluster">
<title>cluster_\Ara\Calendar</title>
<path fill="none" stroke="#c0c0c0" d="M412.7728,-1160C412.7728,-1160 475.7728,-1160 475.7728,-1160 481.7728,-1160 487.7728,-1166 487.7728,-1172 487.7728,-1172 487.7728,-1220 487.7728,-1220 487.7728,-1226 481.7728,-1232 475.7728,-1232 475.7728,-1232 412.7728,-1232 412.7728,-1232 406.7728,-1232 400.7728,-1226 400.7728,-1220 400.7728,-1220 400.7728,-1172 400.7728,-1172 400.7728,-1166 406.7728,-1160 412.7728,-1160"/>
<text text-anchor="middle" x="444.2728" y="-1219.2" font-family="Times,serif" font-size="11.00" fill="#c0c0c0">Calendar</text>
</g>
<g id="clust6" class="cluster">
<title>cluster_\Ara\Connect</title>
<path fill="none" stroke="#c0c0c0" d="M125.3864,-810C125.3864,-810 472.2728,-810 472.2728,-810 478.2728,-810 484.2728,-816 484.2728,-822 484.2728,-822 484.2728,-1140 484.2728,-1140 484.2728,-1146 478.2728,-1152 472.2728,-1152 472.2728,-1152 125.3864,-1152 125.3864,-1152 119.3864,-1152 113.3864,-1146 113.3864,-1140 113.3864,-1140 113.3864,-822 113.3864,-822 113.3864,-816 119.3864,-810 125.3864,-810"/>
<text text-anchor="middle" x="298.8296" y="-1139.2" font-family="Times,serif" font-size="11.00" fill="#c0c0c0">Connect</text>
</g>
<g id="clust7" class="cluster">
<title>cluster_\Ara\Cookie</title>
<path fill="none" stroke="#c0c0c0" d="M419.7728,-730C419.7728,-730 468.7728,-730 468.7728,-730 474.7728,-730 480.7728,-736 480.7728,-742 480.7728,-742 480.7728,-790 480.7728,-790 480.7728,-796 474.7728,-802 468.7728,-802 468.7728,-802 419.7728,-802 419.7728,-802 413.7728,-802 407.7728,-796 407.7728,-790 407.7728,-790 407.7728,-742 407.7728,-742 407.7728,-736 413.7728,-730 419.7728,-730"/>
<text text-anchor="middle" x="444.2728" y="-789.2" font-family="Times,serif" font-size="11.00" fill="#c0c0c0">Cookie</text>
</g>
<g id="clust8" class="cluster">
<title>cluster_\Ara\Database</title>
<path fill="none" stroke="#c0c0c0" d="M121.8864,-542C121.8864,-542 505.7728,-542 505.7728,-542 511.7728,-542 517.7728,-548 517.7728,-554 517.7728,-554 517.7728,-710 517.7728,-710 517.7728,-716 511.7728,-722 505.7728,-722 505.7728,-722 121.8864,-722 121.8864,-722 115.8864,-722 109.8864,-716 109.8864,-710 109.8864,-710 109.8864,-554 109.8864,-554 109.8864,-548 115.8864,-542 121.8864,-542"/>
<text text-anchor="middle" x="313.8296" y="-709.2" font-family="Times,serif" font-size="11.00" fill="#c0c0c0">Database</text>
</g>
<g id="clust9" class="cluster">
<title>cluster_\Ara\Navbar</title>
<path fill="none" stroke="#c0c0c0" d="M419.7728,-462C419.7728,-462 468.7728,-462 468.7728,-462 474.7728,-462 480.7728,-468 480.7728,-474 480.7728,-474 480.7728,-522 480.7728,-522 480.7728,-528 474.7728,-534 468.7728,-534 468.7728,-534 419.7728,-534 419.7728,-534 413.7728,-534 407.7728,-528 407.7728,-522 407.7728,-522 407.7728,-474 407.7728,-474 407.7728,-468 413.7728,-462 419.7728,-462"/>
<text text-anchor="middle" x="444.2728" y="-521.2" font-family="Times,serif" font-size="11.00" fill="#c0c0c0">Navbar</text>
</g>
<g id="clust10" class="cluster">
<title>cluster_\Ara\Session</title>
<path fill="none" stroke="#c0c0c0" d="M416.2728,-302C416.2728,-302 472.2728,-302 472.2728,-302 478.2728,-302 484.2728,-308 484.2728,-314 484.2728,-314 484.2728,-362 484.2728,-362 484.2728,-368 478.2728,-374 472.2728,-374 472.2728,-374 416.2728,-374 416.2728,-374 410.2728,-374 404.2728,-368 404.2728,-362 404.2728,-362 404.2728,-314 404.2728,-314 404.2728,-308 410.2728,-302 416.2728,-302"/>
<text text-anchor="middle" x="444.2728" y="-361.2" font-family="Times,serif" font-size="11.00" fill="#c0c0c0">Session</text>
</g>
<g id="clust11" class="cluster">
<title>cluster_\Ara\Textfilter</title>
<path fill="none" stroke="#c0c0c0" d="M396.2728,-168C396.2728,-168 492.2728,-168 492.2728,-168 498.2728,-168 504.2728,-174 504.2728,-180 504.2728,-180 504.2728,-282 504.2728,-282 504.2728,-288 498.2728,-294 492.2728,-294 492.2728,-294 396.2728,-294 396.2728,-294 390.2728,-294 384.2728,-288 384.2728,-282 384.2728,-282 384.2728,-180 384.2728,-180 384.2728,-174 390.2728,-168 396.2728,-168"/>
<text text-anchor="middle" x="444.2728" y="-281.2" font-family="Times,serif" font-size="11.00" fill="#c0c0c0">Textfilter</text>
</g>
<g id="clust12" class="cluster">
<title>cluster_\Ara\Users</title>
<path fill="none" stroke="#c0c0c0" d="M421.2728,-382C421.2728,-382 467.2728,-382 467.2728,-382 473.2728,-382 479.2728,-388 479.2728,-394 479.2728,-394 479.2728,-442 479.2728,-442 479.2728,-448 473.2728,-454 467.2728,-454 467.2728,-454 421.2728,-454 421.2728,-454 415.2728,-454 409.2728,-448 409.2728,-442 409.2728,-442 409.2728,-394 409.2728,-394 409.2728,-388 415.2728,-382 421.2728,-382"/>
<text text-anchor="middle" x="444.2728" y="-441.2" font-family="Times,serif" font-size="11.00" fill="#c0c0c0">Users</text>
</g>
<!-- \\Ara\\Admin\\Admin -->
<g id="node1" class="node">
<title>\\Ara\\Admin\\Admin</title>
<polygon fill="none" stroke="#000000" points="471.2728,-1364 417.2728,-1364 417.2728,-1328 471.2728,-1328 471.2728,-1364"/>
<text text-anchor="middle" x="444.2728" y="-1343.2" font-family="Courier,monospace" font-size="11.00" fill="#000000">Admin</text>
</g>
<!-- \\Anax\\Common\\AppInjectableInterface -->
<g id="node21" class="node">
<title>\\Anax\\Common\\AppInjectableInterface</title>
<ellipse fill="none" stroke="#000000" cx="153.3864" cy="-126" rx="153.2729" ry="18"/>
<text text-anchor="middle" x="153.3864" y="-122.3" font-family="Times,serif" font-size="14.00" fill="#c0c0c0">\Anax\Common\AppInjectableInterface</text>
</g>
<!-- \\Ara\\Admin\\Admin&#45;&gt;\\Anax\\Common\\AppInjectableInterface -->
<g id="edge1" class="edge">
<title>\\Ara\\Admin\\Admin&#45;&gt;\\Anax\\Common\\AppInjectableInterface</title>
<path fill="none" stroke="#000000" stroke-dasharray="1,5" d="M417.1434,-1340.3881C403.3916,-1336.0855 387.7437,-1328.6516 378.7728,-1316 278.3432,-1174.365 345.3986,-707.2767 306.7728,-538 272.5343,-387.9505 197.0651,-218.6586 166.5626,-153.5372"/>
<polygon fill="none" stroke="#000000" points="169.6614,-151.9022 162.2323,-144.3485 163.3293,-154.8864 169.6614,-151.9022"/>
</g>
<!-- \\Anax\\Common\\ConfigureInterface -->
<g id="node22" class="node">
<title>\\Anax\\Common\\ConfigureInterface</title>
<ellipse fill="none" stroke="#000000" cx="153.3864" cy="-72" rx="139.1754" ry="18"/>
<text text-anchor="middle" x="153.3864" y="-68.3" font-family="Times,serif" font-size="14.00" fill="#c0c0c0">\Anax\Common\ConfigureInterface</text>
</g>
<!-- \\Ara\\Admin\\Admin&#45;&gt;\\Anax\\Common\\ConfigureInterface -->
<g id="edge2" class="edge">
<title>\\Ara\\Admin\\Admin&#45;&gt;\\Anax\\Common\\ConfigureInterface</title>
<path fill="none" stroke="#000000" stroke-dasharray="1,5" d="M416.9749,-1340.5054C403.1738,-1336.2372 387.5325,-1328.7987 378.7728,-1316 225.7578,-1092.4321 486.9996,-301.2733 306.7728,-99 301.6407,-93.2401 295.7473,-88.4288 289.3261,-84.426"/>
<polygon fill="none" stroke="#000000" points="290.7155,-81.1962 280.2646,-79.4558 287.3491,-87.3336 290.7155,-81.1962"/>
</g>
<!-- \\Ara\\App\\App -->
<g id="node2" class="node">
<title>\\Ara\\App\\App</title>
<polygon fill="none" stroke="#000000" points="471.2728,-1284 417.2728,-1284 417.2728,-1248 471.2728,-1248 471.2728,-1284"/>
<text text-anchor="middle" x="444.2728" y="-1263.2" font-family="Courier,monospace" font-size="11.00" fill="#000000">App</text>
</g>
<!-- \\Ara\\Calendar\\Calendar -->
<g id="node3" class="node">
<title>\\Ara\\Calendar\\Calendar</title>
<polygon fill="none" stroke="#000000" points="479.7728,-1204 408.7728,-1204 408.7728,-1168 479.7728,-1168 479.7728,-1204"/>
<text text-anchor="middle" x="444.2728" y="-1183.2" font-family="Courier,monospace" font-size="11.00" fill="#000000">Calendar</text>
</g>
<!-- \\Ara\\Connect\\Admin -->
<g id="node4" class="node">
<title>\\Ara\\Connect\\Admin</title>
<polygon fill="none" stroke="#000000" points="471.2728,-1016 417.2728,-1016 417.2728,-980 471.2728,-980 471.2728,-1016"/>
<text text-anchor="middle" x="444.2728" y="-995.2" font-family="Courier,monospace" font-size="11.00" fill="#000000">Admin</text>
</g>
<!-- \\Ara\\Connect\\Connect -->
<g id="node7" class="node">
<title>\\Ara\\Connect\\Connect</title>
<polygon fill="none" stroke="#000000" points="185.3864,-989 121.3864,-989 121.3864,-953 185.3864,-953 185.3864,-989"/>
<text text-anchor="middle" x="153.3864" y="-968.2" font-family="Courier,monospace" font-size="11.00" fill="#000000">Connect</text>
</g>
<!-- \\Ara\\Connect\\Admin&#45;&gt;\\Ara\\Connect\\Connect -->
<g id="edge3" class="edge">
<title>\\Ara\\Connect\\Admin&#45;&gt;\\Ara\\Connect\\Connect</title>
<path fill="none" stroke="#000000" d="M417.1681,-995.4842C366.3705,-990.7691 256.511,-980.572 195.8197,-974.9387"/>
<polygon fill="none" stroke="#000000" points="196.0819,-971.448 185.8012,-974.0087 195.4349,-978.4181 196.0819,-971.448"/>
</g>
<!-- \\Ara\\Connect\\Admin&#45;&gt;\\Anax\\Common\\AppInjectableInterface -->
<g id="edge4" class="edge">
<title>\\Ara\\Connect\\Admin&#45;&gt;\\Anax\\Common\\AppInjectableInterface</title>
<path fill="none" stroke="#000000" stroke-dasharray="1,5" d="M417.234,-993.294C403.6834,-989.532 388.1946,-982.8367 378.7728,-971 257.2768,-818.3645 357.0364,-726.5005 306.7728,-538 267.0257,-388.9391 194.4243,-218.425 165.6264,-153.2565"/>
<polygon fill="none" stroke="#000000" points="168.8047,-151.7899 161.548,-144.0703 162.4069,-154.6303 168.8047,-151.7899"/>
</g>
<!-- \\Ara\\Connect\\Admin&#45;&gt;\\Anax\\Common\\ConfigureInterface -->
<g id="edge5" class="edge">
<title>\\Ara\\Connect\\Admin&#45;&gt;\\Anax\\Common\\ConfigureInterface</title>
<path fill="none" stroke="#000000" stroke-dasharray="1,5" d="M417.1657,-993.6891C403.4205,-990.0335 387.7717,-983.314 378.7728,-971 264.0494,-814.0148 437.8031,-242.6554 306.7728,-99 301.574,-93.3003 295.6287,-88.5356 289.1681,-84.5685"/>
<polygon fill="none" stroke="#000000" points="290.5209,-81.321 280.0602,-79.6401 287.1895,-87.4775 290.5209,-81.321"/>
</g>
<!-- \\Ara\\Connect\\Block -->
<g id="node5" class="node">
<title>\\Ara\\Connect\\Block</title>
<polygon fill="none" stroke="#000000" points="471.2728,-962 417.2728,-962 417.2728,-926 471.2728,-926 471.2728,-962"/>
<text text-anchor="middle" x="444.2728" y="-941.2" font-family="Courier,monospace" font-size="11.00" fill="#000000">Block</text>
</g>
<!-- \\Ara\\Connect\\Block&#45;&gt;\\Ara\\Connect\\Connect -->
<g id="edge6" class="edge">
<title>\\Ara\\Connect\\Block&#45;&gt;\\Ara\\Connect\\Connect</title>
<path fill="none" stroke="#000000" d="M417.1681,-946.5158C366.3705,-951.2309 256.511,-961.428 195.8197,-967.0613"/>
<polygon fill="none" stroke="#000000" points="195.4349,-963.5819 185.8012,-967.9913 196.0819,-970.552 195.4349,-963.5819"/>
</g>
<!-- \\Ara\\Connect\\Block&#45;&gt;\\Anax\\Common\\AppInjectableInterface -->
<g id="edge7" class="edge">
<title>\\Ara\\Connect\\Block&#45;&gt;\\Anax\\Common\\AppInjectableInterface</title>
<path fill="none" stroke="#000000" stroke-dasharray="1,5" d="M417.0134,-939.1128C403.5724,-935.3097 388.2522,-928.6324 378.7728,-917 270.4598,-784.0871 352.8473,-703.1504 306.7728,-538 265.317,-389.4052 193.7051,-218.6212 165.3993,-153.3185"/>
<polygon fill="none" stroke="#000000" points="168.5926,-151.885 161.3924,-144.1128 162.1743,-154.6787 168.5926,-151.885"/>
</g>
<!-- \\Ara\\Connect\\Block&#45;&gt;\\Anax\\Common\\ConfigureInterface -->
<g id="edge8" class="edge">
<title>\\Ara\\Connect\\Block&#45;&gt;\\Anax\\Common\\ConfigureInterface</title>
<path fill="none" stroke="#000000" stroke-dasharray="1,5" d="M417.1923,-939.6697C403.4548,-936.0083 387.805,-929.2896 378.7728,-917 270.7059,-769.9602 430.1099,-233.4883 306.7728,-99 301.5586,-93.3144 295.6014,-88.5607 289.1316,-84.6019"/>
<polygon fill="none" stroke="#000000" points="290.4759,-81.3503 280.013,-79.6832 287.1526,-87.5112 290.4759,-81.3503"/>
</g>
<!-- \\Ara\\Connect\\Blog -->
<g id="node6" class="node">
<title>\\Ara\\Connect\\Blog</title>
<polygon fill="none" stroke="#000000" points="471.2728,-908 417.2728,-908 417.2728,-872 471.2728,-872 471.2728,-908"/>
<text text-anchor="middle" x="444.2728" y="-887.2" font-family="Courier,monospace" font-size="11.00" fill="#000000">Blog</text>
</g>
<!-- \\Ara\\Connect\\Blog&#45;&gt;\\Ara\\Connect\\Connect -->
<g id="edge9" class="edge">
<title>\\Ara\\Connect\\Blog&#45;&gt;\\Ara\\Connect\\Connect</title>
<path fill="none" stroke="#000000" d="M417.1681,-897.5475C366.2655,-911.7218 256.0568,-942.4105 195.4442,-959.2886"/>
<polygon fill="none" stroke="#000000" points="194.4957,-955.9195 185.8012,-961.9738 196.3736,-962.6629 194.4957,-955.9195"/>
</g>
<!-- \\Ara\\Connect\\Blog&#45;&gt;\\Anax\\Common\\AppInjectableInterface -->
<g id="edge10" class="edge">
<title>\\Ara\\Connect\\Blog&#45;&gt;\\Anax\\Common\\AppInjectableInterface</title>
<path fill="none" stroke="#000000" stroke-dasharray="1,5" d="M417.1573,-884.9938C403.7556,-881.158 388.4272,-874.4875 378.7728,-863 283.5862,-749.7405 348.6825,-679.8865 306.7728,-538 263.0721,-390.0499 192.7602,-218.8925 165.101,-153.4041"/>
<polygon fill="none" stroke="#000000" points="168.3128,-152.0129 161.188,-144.1715 161.8678,-154.7445 168.3128,-152.0129"/>
</g>
<!-- \\Ara\\Connect\\Blog&#45;&gt;\\Anax\\Common\\ConfigureInterface -->
<g id="edge11" class="edge">
<title>\\Ara\\Connect\\Blog&#45;&gt;\\Anax\\Common\\ConfigureInterface</title>
<path fill="none" stroke="#000000" stroke-dasharray="1,5" d="M417.2225,-885.6474C403.4939,-881.9795 387.8429,-875.2617 378.7728,-863 277.3597,-725.9019 422.4198,-224.3246 306.7728,-99 301.5411,-93.3305 295.5702,-88.5893 289.0901,-84.64"/>
<polygon fill="none" stroke="#000000" points="290.4247,-81.3839 279.9594,-79.7326 287.1108,-87.5498 290.4247,-81.3839"/>
</g>
<!-- \\Ara\\Connect\\Content -->
<g id="node8" class="node">
<title>\\Ara\\Connect\\Content</title>
<polygon fill="none" stroke="#000000" points="476.2728,-854 412.2728,-854 412.2728,-818 476.2728,-818 476.2728,-854"/>
<text text-anchor="middle" x="444.2728" y="-833.2" font-family="Courier,monospace" font-size="11.00" fill="#000000">Content</text>
</g>
<!-- \\Ara\\Connect\\Content&#45;&gt;\\Ara\\Connect\\Connect -->
<g id="edge12" class="edge">
<title>\\Ara\\Connect\\Content&#45;&gt;\\Ara\\Connect\\Connect</title>
<path fill="none" stroke="#000000" d="M412.1381,-848.8284C401.4671,-853.1992 389.5595,-858.1969 378.7728,-863 313.8277,-891.9187 239.6905,-928.06 194.7309,-950.3328"/>
<polygon fill="none" stroke="#000000" points="192.9953,-947.2868 185.5937,-954.8675 196.1072,-953.5571 192.9953,-947.2868"/>
</g>
<!-- \\Ara\\Connect\\Content&#45;&gt;\\Anax\\Common\\AppInjectableInterface -->
<g id="edge13" class="edge">
<title>\\Ara\\Connect\\Content&#45;&gt;\\Anax\\Common\\AppInjectableInterface</title>
<path fill="none" stroke="#000000" stroke-dasharray="1,5" d="M411.9792,-827.5985C400.0339,-823.0077 387.3328,-816.1242 378.7728,-806 299.1413,-711.8178 344.33,-655.4773 306.7728,-538 259.7955,-391.0574 191.3811,-219.3166 164.6657,-153.538"/>
<polygon fill="none" stroke="#000000" points="167.9021,-152.2052 160.8896,-144.2632 161.4188,-154.8448 167.9021,-152.2052"/>
</g>
<!-- \\Ara\\Connect\\Content&#45;&gt;\\Anax\\Common\\ConfigureInterface -->
<g id="edge14" class="edge">
<title>\\Ara\\Connect\\Content&#45;&gt;\\Anax\\Common\\ConfigureInterface</title>
<path fill="none" stroke="#000000" stroke-dasharray="1,5" d="M412.1353,-828.6495C399.7622,-824.1688 386.7096,-817.0847 378.7728,-806 286.8346,-677.5972 414.3067,-214.6562 306.7728,-99 301.4565,-93.2821 295.388,-88.5106 288.8047,-84.5448"/>
<polygon fill="none" stroke="#000000" points="290.0046,-81.2192 279.5307,-79.6229 286.7231,-87.4024 290.0046,-81.2192"/>
</g>
<!-- \\Ara\\Connect\\Page -->
<g id="node9" class="node">
<title>\\Ara\\Connect\\Page</title>
<polygon fill="none" stroke="#000000" points="471.2728,-1124 417.2728,-1124 417.2728,-1088 471.2728,-1088 471.2728,-1124"/>
<text text-anchor="middle" x="444.2728" y="-1103.2" font-family="Courier,monospace" font-size="11.00" fill="#000000">Page</text>
</g>
<!-- \\Ara\\Connect\\Page&#45;&gt;\\Ara\\Connect\\Connect -->
<g id="edge15" class="edge">
<title>\\Ara\\Connect\\Page&#45;&gt;\\Ara\\Connect\\Connect</title>
<path fill="none" stroke="#000000" d="M417.0405,-1095.1714C405.2156,-1090.3673 391.2449,-1084.5536 378.7728,-1079 313.8277,-1050.0813 239.6905,-1013.94 194.7309,-991.6672"/>
<polygon fill="none" stroke="#000000" points="196.1072,-988.4429 185.5937,-987.1325 192.9953,-994.7132 196.1072,-988.4429"/>
</g>
<!-- \\Ara\\Connect\\Page&#45;&gt;\\Anax\\Common\\AppInjectableInterface -->
<g id="edge16" class="edge">
<title>\\Ara\\Connect\\Page&#45;&gt;\\Anax\\Common\\AppInjectableInterface</title>
<path fill="none" stroke="#000000" stroke-dasharray="1,5" d="M417.0775,-1101.4166C403.4824,-1097.6893 388.0013,-1090.988 378.7728,-1079 304.7909,-982.8955 336.1146,-655.6794 306.7728,-538 269.4505,-388.3136 195.4449,-218.1617 165.9485,-153.1734"/>
<polygon fill="none" stroke="#000000" points="169.1043,-151.6581 161.7688,-144.0134 162.7359,-154.564 169.1043,-151.6581"/>
</g>
<!-- \\Ara\\Connect\\Page&#45;&gt;\\Anax\\Common\\ConfigureInterface -->
<g id="edge17" class="edge">
<title>\\Ara\\Connect\\Page&#45;&gt;\\Anax\\Common\\ConfigureInterface</title>
<path fill="none" stroke="#000000" stroke-dasharray="1,5" d="M417.1213,-1101.7215C403.363,-1098.0753 387.7159,-1091.3545 378.7728,-1079 250.73,-902.1153 453.1967,-260.9975 306.7728,-99 301.5998,-93.2768 295.6746,-88.494 289.2292,-84.5129"/>
<polygon fill="none" stroke="#000000" points="290.5962,-81.2723 280.1393,-79.5682 287.2512,-87.4214 290.5962,-81.2723"/>
</g>
<!-- \\Ara\\Connect\\Webshop -->
<g id="node10" class="node">
<title>\\Ara\\Connect\\Webshop</title>
<polygon fill="none" stroke="#000000" points="476.2728,-1070 412.2728,-1070 412.2728,-1034 476.2728,-1034 476.2728,-1070"/>
<text text-anchor="middle" x="444.2728" y="-1049.2" font-family="Courier,monospace" font-size="11.00" fill="#000000">Webshop</text>
</g>
<!-- \\Ara\\Connect\\Webshop&#45;&gt;\\Ara\\Connect\\Connect -->
<g id="edge18" class="edge">
<title>\\Ara\\Connect\\Webshop&#45;&gt;\\Ara\\Connect\\Connect</title>
<path fill="none" stroke="#000000" d="M412.0314,-1043.0221C359.1749,-1028.3037 254.1171,-999.0494 195.4662,-982.7175"/>
<polygon fill="none" stroke="#000000" points="196.3445,-979.329 185.7721,-980.0181 194.4667,-986.0724 196.3445,-979.329"/>
</g>
<!-- \\Ara\\Connect\\Webshop&#45;&gt;\\Anax\\Common\\AppInjectableInterface -->
<g id="edge19" class="edge">
<title>\\Ara\\Connect\\Webshop&#45;&gt;\\Anax\\Common\\AppInjectableInterface</title>
<path fill="none" stroke="#000000" stroke-dasharray="1,5" d="M412.1104,-1045.857C399.8873,-1041.9081 386.9518,-1035.4672 378.7728,-1025 244.0561,-852.5946 361.241,-749.909 306.7728,-538 268.3684,-388.5875 194.9895,-218.277 165.8048,-153.2098"/>
<polygon fill="none" stroke="#000000" points="168.9708,-151.7164 161.6703,-144.0383 162.5892,-154.5932 168.9708,-151.7164"/>
</g>
<!-- \\Ara\\Connect\\Webshop&#45;&gt;\\Anax\\Common\\ConfigureInterface -->
<g id="edge20" class="edge">
<title>\\Ara\\Connect\\Webshop&#45;&gt;\\Anax\\Common\\ConfigureInterface</title>
<path fill="none" stroke="#000000" stroke-dasharray="1,5" d="M412.0835,-1046.2422C399.702,-1042.3476 386.6572,-1035.8433 378.7728,-1025 257.3906,-858.0663 445.4988,-251.8253 306.7728,-99 301.5876,-93.2879 295.653,-88.5136 289.2004,-84.5391"/>
<polygon fill="none" stroke="#000000" points="290.5607,-81.2952 280.102,-79.602 287.2221,-87.4477 290.5607,-81.2952"/>
</g>
<!-- \\Ara\\Cookie\\Cookie -->
<g id="node11" class="node">
<title>\\Ara\\Cookie\\Cookie</title>
<polygon fill="none" stroke="#000000" points="472.7728,-774 415.7728,-774 415.7728,-738 472.7728,-738 472.7728,-774"/>
<text text-anchor="middle" x="444.2728" y="-753.2" font-family="Courier,monospace" font-size="11.00" fill="#000000">Cookie</text>
</g>
<!-- \\Ara\\Database\\Database -->
<g id="node12" class="node">
<title>\\Ara\\Database\\Database</title>
<polygon fill="none" stroke="#000000" points="188.8864,-667 117.8864,-667 117.8864,-631 188.8864,-631 188.8864,-667"/>
<text text-anchor="middle" x="153.3864" y="-646.2" font-family="Courier,monospace" font-size="11.00" fill="#000000">Database</text>
</g>
<!-- \\Ara\\Database\\DatabaseConfigure -->
<g id="node13" class="node">
<title>\\Ara\\Database\\DatabaseConfigure</title>
<polygon fill="none" stroke="#000000" points="509.7728,-640 378.7728,-640 378.7728,-604 509.7728,-604 509.7728,-640"/>
<text text-anchor="middle" x="444.2728" y="-619.2" font-family="Courier,monospace" font-size="11.00" fill="#000000">DatabaseConfigure</text>
</g>
<!-- \\Ara\\Database\\DatabaseConfigure&#45;&gt;\\Ara\\Database\\Database -->
<g id="edge21" class="edge">
<title>\\Ara\\Database\\DatabaseConfigure&#45;&gt;\\Ara\\Database\\Database</title>
<path fill="none" stroke="#000000" d="M378.6295,-628.093C323.9905,-633.1646 247.5891,-640.2561 199.306,-644.7378"/>
<polygon fill="none" stroke="#000000" points="198.7852,-641.271 189.1515,-645.6803 199.4322,-648.241 198.7852,-641.271"/>
</g>
<!-- \\Ara\\Database\\DatabaseConfigure&#45;&gt;\\Anax\\Common\\ConfigureInterface -->
<g id="edge22" class="edge">
<title>\\Ara\\Database\\DatabaseConfigure&#45;&gt;\\Anax\\Common\\ConfigureInterface</title>
<path fill="none" stroke="#000000" stroke-dasharray="1,5" d="M388.0271,-603.9679C384.5658,-601.3674 381.4189,-598.3956 378.7728,-595 241.8498,-419.2961 461.8971,-258.8631 306.7728,-99 301.1459,-93.2013 294.7427,-88.3884 287.8211,-84.4103"/>
<polygon fill="none" stroke="#000000" points="289.2941,-81.2327 278.7957,-79.8063 286.1133,-87.4682 289.2941,-81.2327"/>
</g>
<!-- \\Ara\\Database\\DatabaseDebug -->
<g id="node14" class="node">
<title>\\Ara\\Database\\DatabaseDebug</title>
<polygon fill="none" stroke="#000000" points="496.2728,-694 392.2728,-694 392.2728,-658 496.2728,-658 496.2728,-694"/>
<text text-anchor="middle" x="444.2728" y="-673.2" font-family="Courier,monospace" font-size="11.00" fill="#000000">DatabaseDebug</text>
</g>
<!-- \\Ara\\Database\\DatabaseDebug&#45;&gt;\\Ara\\Database\\Database -->
<g id="edge23" class="edge">
<title>\\Ara\\Database\\DatabaseDebug&#45;&gt;\\Ara\\Database\\Database</title>
<path fill="none" stroke="#000000" d="M392.2681,-671.1729C337.2683,-666.0679 251.354,-658.0933 198.9343,-653.2277"/>
<polygon fill="none" stroke="#000000" points="199.1968,-649.7372 188.9161,-652.2979 198.5498,-656.7072 199.1968,-649.7372"/>
</g>
<!-- \\Ara\\Database\\Exception -->
<g id="node15" class="node">
<title>\\Ara\\Database\\Exception</title>
<polygon fill="none" stroke="#000000" points="482.7728,-586 405.7728,-586 405.7728,-550 482.7728,-550 482.7728,-586"/>
<text text-anchor="middle" x="444.2728" y="-565.2" font-family="Courier,monospace" font-size="11.00" fill="#000000">Exception</text>
</g>
<!-- \\Exception -->
<g id="node23" class="node">
<title>\\Exception</title>
<ellipse fill="none" stroke="#000000" cx="153.3864" cy="-18" rx="50.0912" ry="18"/>
<text text-anchor="middle" x="153.3864" y="-14.3" font-family="Times,serif" font-size="14.00" fill="#c0c0c0">\Exception</text>
</g>
<!-- \\Ara\\Database\\Exception&#45;&gt;\\Exception -->
<g id="edge24" class="edge">
<title>\\Ara\\Database\\Exception&#45;&gt;\\Exception</title>
<path fill="none" stroke="#000000" d="M405.5411,-557.7287C395.3995,-553.2477 385.4487,-546.9077 378.7728,-538 245.9722,-360.806 461.0469,-203.8495 306.7728,-45 282.635,-20.1464 244.2339,-13.4082 211.8945,-12.8774"/>
<polygon fill="none" stroke="#000000" points="211.6229,-9.3781 201.6334,-12.9082 211.6439,-16.3781 211.6229,-9.3781"/>
</g>
<!-- \\Ara\\Navbar\\Navbar -->
<g id="node16" class="node">
<title>\\Ara\\Navbar\\Navbar</title>
<polygon fill="none" stroke="#000000" points="472.7728,-506 415.7728,-506 415.7728,-470 472.7728,-470 472.7728,-506"/>
<text text-anchor="middle" x="444.2728" y="-485.2" font-family="Courier,monospace" font-size="11.00" fill="#000000">Navbar</text>
</g>
<!-- \\Ara\\Navbar\\Navbar&#45;&gt;\\Anax\\Common\\AppInjectableInterface -->
<g id="edge25" class="edge">
<title>\\Ara\\Navbar\\Navbar&#45;&gt;\\Anax\\Common\\AppInjectableInterface</title>
<path fill="none" stroke="#000000" stroke-dasharray="1,5" d="M415.5676,-478.7881C403.3436,-473.9181 389.4695,-467.0453 378.7728,-458 271.9762,-367.6909 194.0711,-214.8466 165.4227,-153.0894"/>
<polygon fill="none" stroke="#000000" points="168.598,-151.6169 161.2508,-143.9834 162.234,-154.5325 168.598,-151.6169"/>
</g>
<!-- \\Ara\\Navbar\\Navbar&#45;&gt;\\Anax\\Common\\ConfigureInterface -->
<g id="edge26" class="edge">
<title>\\Ara\\Navbar\\Navbar&#45;&gt;\\Anax\\Common\\ConfigureInterface</title>
<path fill="none" stroke="#000000" stroke-dasharray="1,5" d="M415.6786,-481.3337C402.5654,-476.8498 387.9334,-469.5719 378.7728,-458 277.7672,-330.4075 423.1972,-212.6984 306.7728,-99 300.9241,-93.2882 294.3174,-88.549 287.2133,-84.6323"/>
<polygon fill="none" stroke="#000000" points="288.4882,-81.3593 277.9685,-80.0997 285.4066,-87.6446 288.4882,-81.3593"/>
</g>
<!-- \\Ara\\Session\\Session -->
<g id="node17" class="node">
<title>\\Ara\\Session\\Session</title>
<polygon fill="none" stroke="#000000" points="476.2728,-346 412.2728,-346 412.2728,-310 476.2728,-310 476.2728,-346"/>
<text text-anchor="middle" x="444.2728" y="-325.2" font-family="Courier,monospace" font-size="11.00" fill="#000000">Session</text>
</g>
<!-- \\Ara\\Session\\Session&#45;&gt;\\Anax\\Common\\ConfigureInterface -->
<g id="edge27" class="edge">
<title>\\Ara\\Session\\Session&#45;&gt;\\Anax\\Common\\ConfigureInterface</title>
<path fill="none" stroke="#000000" stroke-dasharray="1,5" d="M412.0761,-319.0839C400.2865,-314.4435 387.6691,-307.6607 378.7728,-298 315.0594,-228.8117 378.7745,-159.5159 306.7728,-99 300.0052,-93.312 292.4643,-88.6364 284.458,-84.8076"/>
<polygon fill="none" stroke="#000000" points="285.8062,-81.5774 275.2374,-80.8355 283.0368,-88.0063 285.8062,-81.5774"/>
</g>
<!-- \\Ara\\Textfilter\\TextException -->
<g id="node18" class="node">
<title>\\Ara\\Textfilter\\TextException</title>
<polygon fill="none" stroke="#000000" points="496.2728,-266 392.2728,-266 392.2728,-230 496.2728,-230 496.2728,-266"/>
<text text-anchor="middle" x="444.2728" y="-245.2" font-family="Courier,monospace" font-size="11.00" fill="#000000">TextException</text>
</g>
<!-- \\Ara\\Textfilter\\TextException&#45;&gt;\\Exception -->
<g id="edge28" class="edge">
<title>\\Ara\\Textfilter\\TextException&#45;&gt;\\Exception</title>
<path fill="none" stroke="#000000" d="M392.0985,-231.1965C387.2396,-228.2945 382.6813,-224.919 378.7728,-221 319.0918,-161.1594 372.5761,-98.0343 306.7728,-45 280.7654,-24.0393 244.1401,-17.0208 213.2007,-15.3697"/>
<polygon fill="none" stroke="#000000" points="213.0684,-11.8628 202.9497,-15.0031 212.8182,-18.8583 213.0684,-11.8628"/>
</g>
<!-- \\Ara\\Textfilter\\Textfilter -->
<g id="node19" class="node">
<title>\\Ara\\Textfilter\\Textfilter</title>
<polygon fill="none" stroke="#000000" points="486.2728,-212 402.2728,-212 402.2728,-176 486.2728,-176 486.2728,-212"/>
<text text-anchor="middle" x="444.2728" y="-191.2" font-family="Courier,monospace" font-size="11.00" fill="#000000">Textfilter</text>
</g>
<!-- \\Ara\\Users\\Users -->
<g id="node20" class="node">
<title>\\Ara\\Users\\Users</title>
<polygon fill="none" stroke="#000000" points="471.2728,-426 417.2728,-426 417.2728,-390 471.2728,-390 471.2728,-426"/>
<text text-anchor="middle" x="444.2728" y="-405.2" font-family="Courier,monospace" font-size="11.00" fill="#000000">Users</text>
</g>
<!-- \\Ara\\Users\\Users&#45;&gt;\\Anax\\Common\\AppInjectableInterface -->
<g id="edge29" class="edge">
<title>\\Ara\\Users\\Users&#45;&gt;\\Anax\\Common\\AppInjectableInterface</title>
<path fill="none" stroke="#000000" stroke-dasharray="1,5" d="M417.087,-398.4907C404.7437,-393.4563 390.3501,-386.5355 378.7728,-378 287.8539,-310.9696 206.261,-202.3097 171.3521,-152.4891"/>
<polygon fill="none" stroke="#000000" points="174.156,-150.3905 165.5771,-144.1733 168.4064,-154.3834 174.156,-150.3905"/>
</g>
<!-- \\Ara\\Users\\Users&#45;&gt;\\Anax\\Common\\ConfigureInterface -->
<g id="edge30" class="edge">
<title>\\Ara\\Users\\Users&#45;&gt;\\Anax\\Common\\ConfigureInterface</title>
<path fill="none" stroke="#000000" stroke-dasharray="1,5" d="M417.2723,-401.5639C403.902,-397.0629 388.5671,-389.701 378.7728,-378 296.5742,-279.7992 400.8021,-185.9396 306.7728,-99 300.7005,-93.3855 293.8896,-88.7273 286.6034,-84.8768"/>
<polygon fill="none" stroke="#000000" points="287.678,-81.5142 277.1398,-80.4205 284.6958,-87.8472 287.678,-81.5142"/>
</g>
</g>
</svg>
